<svg width="163" height="36" viewBox="0 0 163 36" fill="none" xmlns="http://www.w3.org/2000/svg">
<rect width="163" height="36" rx="6" fill="#F4333D"/>
<path d="M16.424 23.098C15.7053 23.098 15.0613 22.9813 14.492 22.748C13.9227 22.5147 13.4653 22.1693 13.12 21.712C12.784 21.2547 12.6067 20.704 12.588 20.06H15.136C15.1733 20.424 15.2993 20.704 15.514 20.9C15.7287 21.0867 16.0087 21.18 16.354 21.18C16.7087 21.18 16.9887 21.1007 17.194 20.942C17.3993 20.774 17.502 20.5453 17.502 20.256C17.502 20.0133 17.418 19.8127 17.25 19.654C17.0913 19.4953 16.8907 19.3647 16.648 19.262C16.4147 19.1593 16.0787 19.0427 15.64 18.912C15.0053 18.716 14.4873 18.52 14.086 18.324C13.6847 18.128 13.3393 17.8387 13.05 17.456C12.7607 17.0733 12.616 16.574 12.616 15.958C12.616 15.0433 12.9473 14.3293 13.61 13.816C14.2727 13.2933 15.136 13.032 16.2 13.032C17.2827 13.032 18.1553 13.2933 18.818 13.816C19.4807 14.3293 19.8353 15.048 19.882 15.972H17.292C17.2733 15.6547 17.1567 15.4073 16.942 15.23C16.7273 15.0433 16.452 14.95 16.116 14.95C15.8267 14.95 15.5933 15.0293 15.416 15.188C15.2387 15.3373 15.15 15.5567 15.15 15.846C15.15 16.1633 15.2993 16.4107 15.598 16.588C15.8967 16.7653 16.3633 16.9567 16.998 17.162C17.6327 17.3767 18.146 17.582 18.538 17.778C18.9393 17.974 19.2847 18.2587 19.574 18.632C19.8633 19.0053 20.008 19.486 20.008 20.074C20.008 20.634 19.8633 21.1427 19.574 21.6C19.294 22.0573 18.8833 22.4213 18.342 22.692C17.8007 22.9627 17.1613 23.098 16.424 23.098ZM22.6853 14.376C22.2653 14.376 21.9199 14.2547 21.6493 14.012C21.3879 13.76 21.2573 13.452 21.2573 13.088C21.2573 12.7147 21.3879 12.4067 21.6493 12.164C21.9199 11.912 22.2653 11.786 22.6853 11.786C23.0959 11.786 23.4319 11.912 23.6933 12.164C23.9639 12.4067 24.0993 12.7147 24.0993 13.088C24.0993 13.452 23.9639 13.76 23.6933 14.012C23.4319 14.2547 23.0959 14.376 22.6853 14.376ZM23.8753 15.188V23H21.4813V15.188H23.8753ZM28.5782 15.076C29.1289 15.076 29.6095 15.188 30.0202 15.412C30.4402 15.636 30.7622 15.93 30.9862 16.294V15.188H33.3802V22.986C33.3802 23.7047 33.2355 24.3533 32.9462 24.932C32.6662 25.52 32.2322 25.9867 31.6442 26.332C31.0655 26.6773 30.3422 26.85 29.4742 26.85C28.3169 26.85 27.3789 26.5747 26.6602 26.024C25.9415 25.4827 25.5309 24.7453 25.4282 23.812H27.7942C27.8689 24.1107 28.0462 24.344 28.3262 24.512C28.6062 24.6893 28.9515 24.778 29.3622 24.778C29.8569 24.778 30.2489 24.6333 30.5382 24.344C30.8369 24.064 30.9862 23.6113 30.9862 22.986V21.88C30.7529 22.244 30.4309 22.5427 30.0202 22.776C29.6095 23 29.1289 23.112 28.5782 23.112C27.9342 23.112 27.3509 22.9487 26.8282 22.622C26.3055 22.286 25.8902 21.8147 25.5822 21.208C25.2835 20.592 25.1342 19.8827 25.1342 19.08C25.1342 18.2773 25.2835 17.5727 25.5822 16.966C25.8902 16.3593 26.3055 15.8927 26.8282 15.566C27.3509 15.2393 27.9342 15.076 28.5782 15.076ZM30.9862 19.094C30.9862 18.4967 30.8182 18.0253 30.4822 17.68C30.1555 17.3347 29.7542 17.162 29.2782 17.162C28.8022 17.162 28.3962 17.3347 28.0602 17.68C27.7335 18.016 27.5702 18.4827 27.5702 19.08C27.5702 19.6773 27.7335 20.1533 28.0602 20.508C28.3962 20.8533 28.8022 21.026 29.2782 21.026C29.7542 21.026 30.1555 20.8533 30.4822 20.508C30.8182 20.1627 30.9862 19.6913 30.9862 19.094ZM39.8721 15.104C40.7868 15.104 41.5148 15.4027 42.0561 16C42.6068 16.588 42.8821 17.4 42.8821 18.436V23H40.5021V18.758C40.5021 18.2353 40.3668 17.8293 40.0961 17.54C39.8255 17.2507 39.4615 17.106 39.0041 17.106C38.5468 17.106 38.1828 17.2507 37.9121 17.54C37.6415 17.8293 37.5061 18.2353 37.5061 18.758V23H35.1121V15.188H37.5061V16.224C37.7488 15.8787 38.0755 15.608 38.4861 15.412C38.8968 15.2067 39.3588 15.104 39.8721 15.104Z" fill="white"/>
<path d="M58.082 15.188L55.968 23H53.322L52.09 17.932L50.816 23H48.184L46.056 15.188H48.45L49.556 20.774L50.872 15.188H53.406L54.736 20.746L55.828 15.188H58.082ZM60.199 14.376C59.779 14.376 59.4336 14.2547 59.163 14.012C58.9016 13.76 58.771 13.452 58.771 13.088C58.771 12.7147 58.9016 12.4067 59.163 12.164C59.4336 11.912 59.779 11.786 60.199 11.786C60.6096 11.786 60.9456 11.912 61.207 12.164C61.4776 12.4067 61.613 12.7147 61.613 13.088C61.613 13.452 61.4776 13.76 61.207 14.012C60.9456 14.2547 60.6096 14.376 60.199 14.376ZM61.389 15.188V23H58.995V15.188H61.389ZM67.4779 20.97V23H66.2599C65.3919 23 64.7152 22.79 64.2299 22.37C63.7445 21.9407 63.5019 21.2453 63.5019 20.284V17.176H62.5499V15.188H63.5019V13.284H65.8959V15.188H67.4639V17.176H65.8959V20.312C65.8959 20.5453 65.9519 20.7133 66.0639 20.816C66.1759 20.9187 66.3625 20.97 66.6239 20.97H67.4779ZM73.6134 15.104C74.5094 15.104 75.228 15.4027 75.7694 16C76.3107 16.588 76.5814 17.4 76.5814 18.436V23H74.2014V18.758C74.2014 18.2353 74.066 17.8293 73.7954 17.54C73.5247 17.2507 73.1607 17.106 72.7034 17.106C72.246 17.106 71.882 17.2507 71.6114 17.54C71.3407 17.8293 71.2054 18.2353 71.2054 18.758V23H68.8114V12.64H71.2054V16.238C71.448 15.8927 71.7794 15.6173 72.1994 15.412C72.6194 15.2067 73.0907 15.104 73.6134 15.104Z" fill="white"/>
<path fill-rule="evenodd" clip-rule="evenodd" d="M90.3568 17.3166C91.1786 17.3166 91.816 16.6797 91.816 15.8583C91.816 15.0369 91.1786 14.3999 90.3568 14.3999C89.5351 14.3999 88.8977 15.0369 88.8977 15.8583C88.8977 16.6797 89.5351 17.3166 90.3568 17.3166Z" fill="white"/>
<path fill-rule="evenodd" clip-rule="evenodd" d="M88.7803 23.0161H91.9334L91.2625 17.8028C90.7594 17.9537 89.9543 17.9537 89.4511 17.8028L88.7803 23.0161Z" fill="white"/>
<path fill-rule="evenodd" clip-rule="evenodd" d="M84.4529 23.2384C86.5829 23.2384 87.8743 22.1166 87.8743 20.3658C87.8743 19.1421 87.1364 18.3092 85.6102 17.9693L84.1174 17.6293C83.5472 17.4934 83.2453 17.3064 83.2453 16.9664C83.2453 16.6265 83.5305 16.4056 84.1678 16.4056C84.9393 16.4056 85.7443 16.7795 86.2978 17.2894L87.5557 15.4198C86.9519 14.8758 85.7107 14.3999 84.1678 14.3999C82.1719 14.3999 80.8301 15.4027 80.8301 17.1025C80.8301 18.3432 81.5178 19.244 82.977 19.584L84.4697 19.941C85.2076 20.1109 85.4424 20.3319 85.4424 20.6209C85.4424 20.9948 85.1405 21.1987 84.4529 21.1987C83.6479 21.1987 82.6751 20.8588 81.8867 20.1789L80.6289 22.0486C81.2159 22.5925 82.5577 23.2384 84.4529 23.2384Z" fill="white"/>
<path fill-rule="evenodd" clip-rule="evenodd" d="M93.4095 23.0685H95.9252V18.4963C95.9252 17.3745 96.462 16.6776 97.5018 16.6776C98.4913 16.6776 99.0113 17.2555 99.0113 18.4963V23.0685H101.527V17.8504C101.527 15.5728 100.403 14.4 98.4746 14.4C97.3676 14.4 96.529 14.8419 95.9252 15.7087V15.1648C95.9252 14.7909 95.7073 14.5699 95.3383 14.5699H93.4095V23.0685Z" fill="white"/>
<path fill-rule="evenodd" clip-rule="evenodd" d="M107.33 20.5869C106.274 20.5869 105.418 19.7201 105.418 18.6153C105.418 17.5104 106.274 16.6436 107.33 16.6436C108.471 16.6436 109.293 17.5104 109.293 18.6153C109.293 19.7201 108.471 20.5869 107.33 20.5869ZM109.796 14.5699C109.427 14.5699 109.209 14.7909 109.209 15.1648V15.6747C108.639 14.8079 107.733 14.4 106.66 14.4C104.63 14.4 102.869 16.2017 102.869 18.6152C102.869 21.0288 104.63 22.8305 106.66 22.8305C107.733 22.8305 108.605 22.4906 109.209 21.7257V22.2696C109.209 23.4254 108.454 24.2583 107.163 24.2583C106.005 24.2583 105.117 23.7653 104.563 23.2215L103.255 25.1931C104.093 25.958 105.485 26.3999 107.163 26.3999C109.678 26.3999 111.725 25.1251 111.725 21.9297V14.5699H109.796Z" fill="white"/>
<path fill-rule="evenodd" clip-rule="evenodd" d="M118.115 20.9948C116.924 20.9948 116.002 20.0939 116.002 18.8192C116.002 17.5444 116.924 16.6435 118.115 16.6435C119.289 16.6435 120.178 17.5444 120.178 18.8192C120.178 20.0939 119.289 20.9948 118.115 20.9948ZM118.786 14.3999C117.646 14.3999 116.706 14.8078 116.086 15.6747V15.1647C116.086 14.7909 115.868 14.5699 115.499 14.5699H113.57V26.1959H116.086V22.1336C116.74 22.8984 117.646 23.2384 118.786 23.2384C120.966 23.2384 122.727 21.4367 122.727 18.8192C122.727 16.2016 120.966 14.3999 118.786 14.3999Z" fill="white"/>
<path fill-rule="evenodd" clip-rule="evenodd" d="M128.413 20.9948C127.239 20.9948 126.35 20.0939 126.35 18.8192C126.35 17.5444 127.239 16.6435 128.413 16.6435C129.604 16.6435 130.527 17.5444 130.527 18.8192C130.527 20.0939 129.604 20.9948 128.413 20.9948ZM131.03 14.5699C130.661 14.5699 130.443 14.7909 130.443 15.1647V15.6747C129.822 14.8078 128.883 14.3999 127.742 14.3999C125.562 14.3999 123.801 16.2016 123.801 18.8192C123.801 21.4367 125.562 23.2384 127.742 23.2384C128.883 23.2384 129.822 22.8304 130.443 21.9636V23.0684H132.958V14.5699H131.03Z" fill="white"/>
<path fill-rule="evenodd" clip-rule="evenodd" d="M138.057 23.2384C140.187 23.2384 141.479 22.1166 141.479 20.3658C141.479 19.1421 140.741 18.3092 139.215 17.9693L137.722 17.6293C137.152 17.4934 136.85 17.3064 136.85 16.9664C136.85 16.6265 137.135 16.4056 137.772 16.4056C138.544 16.4056 139.349 16.7795 139.902 17.2894L141.16 15.4198C140.556 14.8758 139.315 14.3999 137.772 14.3999C135.776 14.3999 134.435 15.4027 134.435 17.1025C134.435 18.3432 135.122 19.244 136.581 19.584L138.074 19.941C138.812 20.1109 139.047 20.3319 139.047 20.6209C139.047 20.9948 138.745 21.1987 138.057 21.1987C137.252 21.1987 136.279 20.8588 135.491 20.1789L134.233 22.0486C134.82 22.5925 136.162 23.2384 138.057 23.2384Z" fill="white"/>
<path fill-rule="evenodd" clip-rule="evenodd" d="M146.007 23.2384C148.137 23.2384 149.429 22.1166 149.429 20.3658C149.429 19.1421 148.691 18.3092 147.165 17.9693L145.672 17.6293C145.102 17.4934 144.8 17.3064 144.8 16.9664C144.8 16.6265 145.085 16.4056 145.722 16.4056C146.494 16.4056 147.299 16.7795 147.852 17.2894L149.11 15.4198C148.506 14.8758 147.265 14.3999 145.722 14.3999C143.726 14.3999 142.385 15.4027 142.385 17.1025C142.385 18.3432 143.072 19.244 144.531 19.584L146.024 19.941C146.762 20.1109 146.997 20.3319 146.997 20.6209C146.997 20.9948 146.695 21.1987 146.007 21.1987C145.202 21.1987 144.23 20.8588 143.441 20.1789L142.183 22.0486C142.771 22.5925 144.112 23.2384 146.007 23.2384Z" fill="white"/>
</svg>
